<?xml version="1.0" encoding="UTF-8"?>
<svg fill="#FFFFFF" width="100pt" height="100pt" version="1.1" viewBox="0 0 100 100" xmlns="http://www.w3.org/2000/svg">
 <path d="m50 5c-24.898 0-45 20.102-45 45s20.102 45 45 45 45-20.102 45-45-20.102-45-45-45zm12.199 68.699c-13.102 5-27.699-1.6016-32.699-14.602-5-13.102 1.6016-27.699 14.602-32.699 3.5-1.3008 7.1016-1.8008 10.699-1.6016-6.1016 6.8008-8.1992 16.699-4.6992 25.801 3.6016 9.6016 12.398 15.602 22 16.199-2.6016 3.0039-5.9023 5.4023-9.9023 6.9023z"/>
</svg>
