<?xml version="1.0" encoding="UTF-8"?>
<svg fill="#FFFFFF" width="100pt" height="100pt" version="1.1" viewBox="0 0 100 100" xmlns="http://www.w3.org/2000/svg">
 <path d="m50.012 0c-13.266-0.0039062-25.988 5.2578-35.371 14.637-9.3828 9.375-14.656 22.094-14.66 35.359-0.0039063 13.266 5.2617 25.988 14.641 35.371 9.3789 9.3789 22.098 14.652 35.363 14.652 13.262 0.003907 25.984-5.2656 35.367-14.645 9.3789-9.3789 14.648-22.102 14.648-35.363-0.011719-13.258-5.2812-25.969-14.652-35.344-9.3711-9.3789-22.082-14.652-35.336-14.668zm0 92.051c-11.16 0.007813-21.863-4.4219-29.754-12.309-7.8945-7.8867-12.328-18.586-12.332-29.746 0-11.156 4.4336-21.859 12.32-29.75 7.8906-7.8867 18.594-12.32 29.75-12.32 11.16 0.003907 21.859 4.4375 29.746 12.332 7.8867 7.8906 12.316 18.594 12.309 29.754-0.015625 11.145-4.4492 21.828-12.328 29.711-7.8828 7.8789-18.566 12.312-29.711 12.328z"/>
</svg>
