<?xml version="1.0" encoding="UTF-8"?>
<svg fill="#FFFFFF" width="100pt" height="100pt" version="1.1" viewBox="0 0 100 100" xmlns="http://www.w3.org/2000/svg">
 <path d="m49.781 5.9688c-1.0312 0.11328-1.8047 0.99609-1.7812 2.0312v10c-0.007812 0.53516 0.19922 1.0508 0.57422 1.4336 0.37891 0.37891 0.89062 0.59375 1.4258 0.59375s1.0469-0.21484 1.4258-0.59375c0.375-0.38281 0.58203-0.89844 0.57422-1.4336v-10c0.007812-0.54297-0.20312-1.0625-0.58594-1.4453-0.38281-0.38281-0.90234-0.59375-1.4453-0.58594-0.0625-0.003906-0.125-0.003906-0.1875 0zm-30 12c-0.77734 0.074219-1.4414 0.59766-1.6953 1.3359-0.25781 0.74219-0.058594 1.5625 0.50781 2.1016l7 7c0.35547 0.44141 0.88281 0.71094 1.4492 0.74219 0.56641 0.03125 1.1211-0.17969 1.5234-0.58203s0.61328-0.95703 0.58203-1.5234c-0.03125-0.56641-0.30078-1.0938-0.74219-1.4492l-7-7c-0.375-0.39453-0.89453-0.62109-1.4375-0.625-0.0625-0.003906-0.125-0.003906-0.1875 0zm60.188 0c-0.52344 0.019531-1.0156 0.24609-1.375 0.625l-7 7c-0.44141 0.35547-0.71094 0.88281-0.74219 1.4492-0.03125 0.56641 0.17969 1.1211 0.58203 1.5234s0.95703 0.61328 1.5234 0.58203c0.56641-0.03125 1.0938-0.30078 1.4492-0.74219l7-7c0.59375-0.57422 0.77344-1.4492 0.45312-2.2109-0.31641-0.75781-1.0664-1.2461-1.8906-1.2266zm-29.969 9.0312c-12.703 0-23 10.297-23 23s10.297 23 23 23 23-10.297 23-23-10.297-23-23-23zm-42.188 21c-0.53125 0.023438-1.0312 0.25781-1.3867 0.65234-0.35938 0.39062-0.54297 0.91016-0.51953 1.4414s0.25781 1.0312 0.65234 1.3867c0.39062 0.35938 0.91016 0.54297 1.4414 0.51953h10c0.53516 0.007812 1.0508-0.19922 1.4336-0.57422 0.37891-0.37891 0.59375-0.89062 0.59375-1.4258s-0.21484-1.0469-0.59375-1.4258c-0.38281-0.375-0.89844-0.58203-1.4336-0.57422h-10c-0.0625-0.003906-0.125-0.003906-0.1875 0zm74 0c-0.53125 0.023438-1.0312 0.25781-1.3867 0.65234-0.35938 0.39062-0.54297 0.91016-0.51953 1.4414s0.25781 1.0312 0.65234 1.3867c0.39062 0.35938 0.91016 0.54297 1.4414 0.51953h10c0.53516 0.007812 1.0508-0.19922 1.4336-0.57422 0.37891-0.37891 0.59375-0.89062 0.59375-1.4258s-0.21484-1.0469-0.59375-1.4258c-0.38281-0.375-0.89844-0.58203-1.4336-0.57422h-10c-0.0625-0.003906-0.125-0.003906-0.1875 0zm-54.844 22.969c-0.52344 0.019531-1.0156 0.24609-1.375 0.625l-7 7c-0.44141 0.35547-0.71094 0.88281-0.74219 1.4492-0.03125 0.56641 0.17969 1.1211 0.58203 1.5234s0.95703 0.61328 1.5234 0.58203c0.56641-0.03125 1.0938-0.30078 1.4492-0.74219l7-7c0.59375-0.57422 0.77344-1.4492 0.45312-2.2109-0.31641-0.75781-1.0664-1.2461-1.8906-1.2266zm45.812 0c-0.77734 0.074219-1.4414 0.59766-1.6953 1.3359-0.25781 0.74219-0.058594 1.5625 0.50781 2.1016l7 7c0.35547 0.44141 0.88281 0.71094 1.4492 0.74219 0.56641 0.03125 1.1211-0.17969 1.5234-0.58203s0.61328-0.95703 0.58203-1.5234c-0.03125-0.56641-0.30078-1.0938-0.74219-1.4492l-7-7c-0.375-0.39453-0.89453-0.62109-1.4375-0.625-0.0625-0.003906-0.125-0.003906-0.1875 0zm-23 9c-1.0312 0.11328-1.8047 0.99609-1.7812 2.0312v10c-0.007812 0.53516 0.19922 1.0508 0.57422 1.4336 0.37891 0.37891 0.89062 0.59375 1.4258 0.59375s1.0469-0.21484 1.4258-0.59375c0.375-0.38281 0.58203-0.89844 0.57422-1.4336v-10c0.007812-0.54297-0.20312-1.0625-0.58594-1.4453-0.38281-0.38281-0.90234-0.59375-1.4453-0.58594-0.0625-0.003906-0.125-0.003906-0.1875 0z"/>
</svg>
