<svg width="139" height="32" viewBox="0 0 139 32" fill="none" xmlns="http://www.w3.org/2000/svg">
<path d="M54.7937 10.5224H49.9637V22.8074H48.2837V10.5224H43.4537V8.94743H54.7937V10.5224ZM63.9063 21.5894C64.1863 21.5894 64.4663 21.5544 64.7463 21.4844L64.6413 22.8074C64.2493 22.9474 63.8293 23.0174 63.3813 23.0174C62.8353 23.0174 62.4013 22.8984 62.0793 22.6604C61.7713 22.4224 61.5753 22.0234 61.4913 21.4634C61.1693 21.9534 60.6933 22.3384 60.0633 22.6184C59.4473 22.8844 58.7963 23.0174 58.1103 23.0174C57.0743 23.0174 56.2203 22.7794 55.5483 22.3034C54.8763 21.8134 54.5403 21.1134 54.5403 20.2034C54.5403 19.4054 54.8903 18.7194 55.5903 18.1454C56.2903 17.5574 57.3053 17.1514 58.6353 16.9274L61.4283 16.4654V15.8774C61.4283 15.1774 61.2113 14.6174 60.7773 14.1974C60.3433 13.7774 59.7413 13.5674 58.9713 13.5674C58.2713 13.5674 57.6623 13.7354 57.1443 14.0714C56.6403 14.4074 56.2483 14.9044 55.9683 15.5624L54.7293 14.6594C55.0093 13.8754 55.5273 13.2524 56.2833 12.7904C57.0533 12.3284 57.9493 12.0974 58.9713 12.0974C60.2173 12.0974 61.2183 12.3984 61.9743 13.0004C62.7303 13.6024 63.1083 14.4914 63.1083 15.6674V20.8334C63.1083 21.0854 63.1713 21.2744 63.2973 21.4004C63.4233 21.5264 63.6263 21.5894 63.9063 21.5894ZM58.1943 21.5474C59.0763 21.5474 59.8323 21.3374 60.4623 20.9174C61.1063 20.4974 61.4283 19.9514 61.4283 19.2794V17.8304L59.0763 18.2714C58.1383 18.4394 57.4383 18.6844 56.9763 19.0064C56.5143 19.3144 56.2833 19.7134 56.2833 20.2034C56.2833 20.6374 56.4513 20.9734 56.7873 21.2114C57.1233 21.4354 57.5923 21.5474 58.1943 21.5474ZM72.2938 12.0974C73.4838 12.0974 74.4638 12.4404 75.2338 13.1264C76.0038 13.8124 76.3888 14.7994 76.3888 16.0874V22.8074H74.7088V16.6754C74.7088 15.5834 74.4708 14.7924 73.9948 14.3024C73.5328 13.8124 72.9098 13.5674 72.1258 13.5674C71.5658 13.5674 71.0408 13.6934 70.5508 13.9454C70.0608 14.1834 69.6548 14.5824 69.3328 15.1424C69.0248 15.6884 68.8708 16.3814 68.8708 17.2214V22.8074H67.1908V12.3074H68.6608L68.7658 13.9454C69.1158 13.3154 69.5988 12.8534 70.2148 12.5594C70.8308 12.2514 71.5238 12.0974 72.2938 12.0974ZM86.0517 21.4634C87.0457 21.4634 87.8227 21.6874 88.3827 22.1354C88.9427 22.5834 89.2227 23.1924 89.2227 23.9624C89.2227 24.6344 88.9917 25.2224 88.5297 25.7264C88.0677 26.2444 87.4377 26.6364 86.6397 26.9024C85.8557 27.1824 84.9877 27.3224 84.0357 27.3224C82.4397 27.3224 81.2357 27.0634 80.4237 26.5454C79.6117 26.0414 79.2057 25.3764 79.2057 24.5504C79.2057 24.0744 79.3667 23.6544 79.6887 23.2904C80.0247 22.9264 80.4797 22.6674 81.0537 22.5134C80.6197 22.3034 80.2697 22.0374 80.0037 21.7154C79.7517 21.3934 79.6257 21.0154 79.6257 20.5814C79.6257 20.0634 79.7657 19.6364 80.0457 19.3004C80.3257 18.9504 80.7107 18.6914 81.2007 18.5234C80.6967 18.2154 80.3117 17.8164 80.0457 17.3264C79.7937 16.8224 79.6677 16.2624 79.6677 15.6464C79.6677 14.9604 79.8497 14.3514 80.2137 13.8194C80.5777 13.2734 81.0887 12.8534 81.7467 12.5594C82.4047 12.2514 83.1467 12.0974 83.9727 12.0974C84.7567 12.0974 85.4707 12.2374 86.1147 12.5174C86.5067 11.0894 87.4937 10.3754 89.0757 10.3754L89.4537 11.8454C88.0817 11.8454 87.2487 12.2304 86.9547 13.0004C87.3747 13.3224 87.6967 13.7074 87.9207 14.1554C88.1587 14.6034 88.2777 15.1004 88.2777 15.6464C88.2777 16.3324 88.0957 16.9484 87.7317 17.4944C87.3677 18.0264 86.8567 18.4464 86.1987 18.7544C85.5407 19.0484 84.7987 19.1954 83.9727 19.1954C83.3567 19.1954 82.8177 19.1324 82.3557 19.0064C81.9357 19.1044 81.6347 19.2584 81.4527 19.4684C81.2707 19.6784 81.1797 19.9654 81.1797 20.3294C81.1797 20.6934 81.3057 20.9734 81.5577 21.1694C81.8097 21.3654 82.1457 21.4634 82.5657 21.4634H86.0517ZM83.9727 13.4624C83.2447 13.4624 82.6357 13.6654 82.1457 14.0714C81.6557 14.4774 81.4107 15.0024 81.4107 15.6464C81.4107 16.2904 81.6557 16.8154 82.1457 17.2214C82.6357 17.6274 83.2447 17.8304 83.9727 17.8304C84.7007 17.8304 85.3097 17.6274 85.7997 17.2214C86.2897 16.8154 86.5347 16.2904 86.5347 15.6464C86.5347 15.0024 86.2897 14.4774 85.7997 14.0714C85.3097 13.6654 84.7007 13.4624 83.9727 13.4624ZM84.2247 25.9154C85.2887 25.9154 86.1287 25.7404 86.7447 25.3904C87.3607 25.0544 87.6687 24.6414 87.6687 24.1514C87.6687 23.7454 87.5077 23.4374 87.1857 23.2274C86.8777 23.0174 86.3457 22.9124 85.5897 22.9124H82.7757C82.1317 22.9124 81.6347 23.0244 81.2847 23.2484C80.9347 23.4864 80.7597 23.8084 80.7597 24.2144C80.7597 24.7464 81.0537 25.1594 81.6417 25.4534C82.2297 25.7614 83.0907 25.9154 84.2247 25.9154ZM92.5581 10.2914C92.1801 10.2914 91.8721 10.1794 91.6341 9.95543C91.4101 9.71743 91.2981 9.40943 91.2981 9.03143C91.2981 8.65343 91.4101 8.35243 91.6341 8.12843C91.8721 7.89043 92.1801 7.77143 92.5581 7.77143C92.9361 7.77143 93.2371 7.89043 93.4611 8.12843C93.6991 8.35243 93.8181 8.65343 93.8181 9.03143C93.8181 9.40943 93.6991 9.71743 93.4611 9.95543C93.2371 10.1794 92.9361 10.2914 92.5581 10.2914ZM93.3981 22.8074H91.7181V12.3074H93.3981V22.8074ZM102.462 12.0974C103.932 12.0974 105.094 12.5874 105.948 13.5674C106.816 14.5334 107.25 15.8634 107.25 17.5574C107.25 19.2514 106.816 20.5884 105.948 21.5684C105.094 22.5344 103.932 23.0174 102.462 23.0174C101.65 23.0174 100.922 22.8354 100.278 22.4714C99.6483 22.0934 99.1793 21.5964 98.8713 20.9804L98.7663 22.8074H97.2963V7.47743H98.9763V13.9454C99.3123 13.3854 99.7813 12.9374 100.383 12.6014C100.999 12.2654 101.692 12.0974 102.462 12.0974ZM102.273 21.5474C103.295 21.5474 104.1 21.1904 104.688 20.4764C105.276 19.7484 105.57 18.7754 105.57 17.5574C105.57 16.3394 105.276 15.3734 104.688 14.6594C104.1 13.9314 103.295 13.5674 102.273 13.5674C101.265 13.5674 100.46 13.9174 99.8583 14.6174C99.2703 15.3174 98.9763 16.2554 98.9763 17.4314V17.6834C98.9763 18.8594 99.2703 19.7974 99.8583 20.4974C100.46 21.1974 101.265 21.5474 102.273 21.5474ZM112.12 19.9934C112.12 20.5254 112.197 20.8964 112.351 21.1064C112.519 21.3024 112.82 21.4004 113.254 21.4004C113.548 21.4004 113.8 21.3794 114.01 21.3374C114.234 21.2954 114.493 21.2184 114.787 21.1064L114.514 22.7234C114.052 22.9194 113.534 23.0174 112.96 23.0174C112.106 23.0174 111.469 22.7864 111.049 22.3244C110.643 21.8624 110.44 21.1554 110.44 20.2034V7.47743H112.12V19.9934ZM125.952 17.0114C125.952 17.4034 125.924 17.7954 125.868 18.1874H117.951C118.049 19.2514 118.399 20.0774 119.001 20.6654C119.617 21.2534 120.408 21.5474 121.374 21.5474C122.144 21.5474 122.781 21.4144 123.285 21.1484C123.803 20.8824 124.153 20.4974 124.335 19.9934L125.742 20.7284C125.322 21.4704 124.762 22.0374 124.062 22.4294C123.362 22.8214 122.466 23.0174 121.374 23.0174C119.792 23.0174 118.546 22.5344 117.636 21.5684C116.74 20.6024 116.292 19.2654 116.292 17.5574C116.292 15.8494 116.719 14.5124 117.573 13.5464C118.441 12.5804 119.666 12.0974 121.248 12.0974C122.228 12.0974 123.075 12.3144 123.789 12.7484C124.503 13.1824 125.042 13.7704 125.406 14.5124C125.77 15.2544 125.952 16.0874 125.952 17.0114ZM121.248 13.5674C120.324 13.5674 119.575 13.8404 119.001 14.3864C118.441 14.9324 118.098 15.7024 117.972 16.6964H124.335C124.223 15.7164 123.901 14.9534 123.369 14.4074C122.837 13.8474 122.13 13.5674 121.248 13.5674ZM132.715 23.0174C131.707 23.0174 130.797 22.8214 129.985 22.4294C129.173 22.0234 128.578 21.4284 128.2 20.6444L129.565 19.6994C129.803 20.3154 130.216 20.7774 130.804 21.0854C131.392 21.3934 132.085 21.5474 132.883 21.5474C133.709 21.5474 134.339 21.4004 134.773 21.1064C135.207 20.8124 135.424 20.4414 135.424 19.9934C135.424 19.5874 135.221 19.2654 134.815 19.0274C134.409 18.7754 133.695 18.5584 132.673 18.3764C131.665 18.1944 130.867 17.9774 130.279 17.7254C129.691 17.4594 129.264 17.1304 128.998 16.7384C128.732 16.3324 128.599 15.8354 128.599 15.2474C128.599 14.6734 128.767 14.1484 129.103 13.6724C129.439 13.1964 129.922 12.8184 130.552 12.5384C131.182 12.2444 131.91 12.0974 132.736 12.0974C133.856 12.0974 134.752 12.3074 135.424 12.7274C136.11 13.1334 136.6 13.7634 136.894 14.6174L135.466 15.4574C135.242 14.7854 134.899 14.3024 134.437 14.0084C133.989 13.7144 133.422 13.5674 132.736 13.5674C132.05 13.5674 131.469 13.7214 130.993 14.0294C130.517 14.3374 130.279 14.6944 130.279 15.1004C130.279 15.5624 130.482 15.9194 130.888 16.1714C131.308 16.4234 132.05 16.6404 133.114 16.8224C134.57 17.0604 135.599 17.4174 136.201 17.8934C136.803 18.3694 137.104 19.0414 137.104 19.9094C137.104 20.5114 136.922 21.0504 136.558 21.5264C136.208 21.9884 135.697 22.3524 135.025 22.6184C134.367 22.8844 133.597 23.0174 132.715 23.0174Z" fill="white"/>
<path d="M0.941294 18.4625H1.04356H1.04223C1.26934 18.4373 1.47519 18.3204 1.61466 18.1411C1.75544 17.9618 1.81653 17.7334 1.78731 17.5076C1.34769 13.7822 2.40489 10.0344 4.72644 7.08828C7.04932 4.14249 10.4466 2.2392 14.1706 1.79822C17.896 1.35595 21.6438 2.41182 24.5909 4.73337C27.546 7.0483 29.4519 10.4495 29.8847 14.1789C29.9405 14.6477 30.3655 14.9838 30.8344 14.928C31.3045 14.8735 31.6405 14.4472 31.5847 13.9783C30.9167 8.35509 27.3001 3.51655 22.0967 1.28411C16.893 -0.948469 10.8954 -0.235285 6.3598 3.15411C1.82556 6.5435 -0.557159 12.0951 0.110941 17.7183C0.162736 18.138 0.517343 18.4555 0.941017 18.4621L0.941294 18.4625Z" fill="white"/>
<path d="M12.8958 31.3862C13.3155 31.5948 13.8242 31.4248 14.034 31.0051C16.3874 26.2862 17.3078 20.9819 16.6796 15.7462C16.6238 15.2761 16.1988 14.9414 15.7287 14.9958C15.2598 15.0516 14.9238 15.4766 14.9796 15.9468C15.568 20.853 14.706 25.8255 12.5013 30.2468C12.4017 30.45 12.3871 30.6851 12.4615 30.899C12.5358 31.1128 12.6912 31.2881 12.8958 31.3864L12.8958 31.3862Z" fill="white"/>
<path d="M26.3654 27.1869C26.5885 27.2308 26.8196 27.1843 27.0082 27.0554C27.1955 26.9279 27.3243 26.7301 27.3655 26.5069C28.1663 22.5252 28.327 18.4397 27.8449 14.4063C27.5952 12.3291 26.8103 10.3515 25.5672 8.66746C25.2856 8.29159 24.7517 8.2159 24.3772 8.49746C24.0013 8.77902 23.9257 9.31159 24.2072 9.68746C25.279 11.1391 25.955 12.8458 26.1688 14.6375C26.6297 18.4918 26.4743 22.3936 25.7093 26.1975C25.623 26.6517 25.9151 27.09 26.3654 27.187V27.1869Z" fill="white"/>
<path d="M3.33688 25.3951C3.54672 25.4801 3.78048 25.4801 3.98767 25.3925C4.19619 25.3048 4.36089 25.1388 4.44589 24.9289C5.46059 22.4427 5.82582 19.7385 5.50972 17.0719C5.21089 14.5484 5.84573 12.0038 7.29604 9.91589C8.74635 7.82941 10.9099 6.34589 13.379 5.74545C15.848 5.14515 18.4525 5.4692 20.6982 6.65788C21.1126 6.87702 21.6279 6.71897 21.847 6.30458C22.0661 5.88886 21.9081 5.37489 21.4937 5.15576C18.8799 3.7692 15.849 3.38935 12.9736 4.08663C10.0983 4.7839 7.57886 6.51045 5.89076 8.94081C4.20272 11.3713 3.46295 14.3342 3.81356 17.2722C4.09512 19.6535 3.76707 22.0668 2.86129 24.2874C2.77629 24.4972 2.77894 24.7323 2.86793 24.9408C2.95824 25.148 3.12691 25.3127 3.33675 25.395L3.33688 25.3951Z" fill="white"/>
<path d="M17.0064 31.5498C17.4354 31.7344 17.9348 31.5365 18.1207 31.1075C20.255 26.1323 21.0426 20.6831 20.4024 15.3081C20.2696 14.0875 19.6547 12.9706 18.6931 12.2056C17.7329 11.4406 16.5057 11.0926 15.2863 11.2373C14.0671 11.3821 12.9568 12.0076 12.2011 12.9759C11.4467 13.9441 11.1094 15.1739 11.2661 16.3918C11.3949 17.4769 11.4414 18.5686 11.4056 19.659C11.391 20.1292 11.7589 20.5223 12.229 20.5369C12.6978 20.5515 13.091 20.1836 13.1056 19.7135C13.1441 18.5381 13.0936 17.36 12.9568 16.1914C12.8519 15.4211 13.0617 14.6415 13.5385 14.0266C14.0153 13.413 14.7179 13.0145 15.4909 12.9242C16.2625 12.8326 17.0395 13.0557 17.6451 13.5418C18.252 14.0279 18.6372 14.7384 18.7155 15.5114C19.3185 20.5862 18.5747 25.7315 16.56 30.4275C16.4697 30.6347 16.4657 30.8711 16.5494 31.081C16.633 31.2922 16.7977 31.4608 17.0063 31.5498L17.0064 31.5498Z" fill="white"/>
<path d="M9.23268 30.2534C9.64439 30.4765 10.1584 30.3238 10.3828 29.9134C11.2328 28.317 11.8942 26.6249 12.3551 24.8759C12.4733 24.4204 12.2024 23.9556 11.7481 23.836C11.2926 23.7178 10.8278 23.9887 10.7082 24.443C10.2819 26.0659 9.66829 27.6345 8.87939 29.1153C8.66689 29.527 8.82361 30.0343 9.23268 30.2535V30.2534Z" fill="white"/>
<path d="M22.4384 15.0863C22.5021 15.5007 22.8594 15.8075 23.2791 15.8075H23.3907C23.8542 15.7477 24.1822 15.3254 24.1251 14.8619C23.8276 12.3716 22.4251 10.1457 20.308 8.80035C18.1896 7.4563 15.5799 7.13357 13.1972 7.92247C12.9834 7.99551 12.8067 8.14958 12.7058 8.35145C12.6062 8.55465 12.5902 8.78841 12.662 9.00224C12.812 9.44849 13.2955 9.68754 13.7417 9.53747C15.6409 8.90793 17.7221 9.16558 19.4102 10.24C21.0969 11.3132 22.2126 13.0902 22.4463 15.0772L22.4384 15.0863Z" fill="white"/>
<path d="M21.5206 30.4275C21.9642 30.5656 22.4357 30.3239 22.5818 29.8829C23.6443 26.7007 24.2367 23.3777 24.3363 20.0229C24.3509 19.5541 23.9817 19.1623 23.5115 19.1477C23.0427 19.1344 22.6509 19.5036 22.6363 19.9725C22.5433 23.1653 21.9815 26.3264 20.9708 29.3571C20.9004 29.5723 20.9204 29.806 21.0226 30.0066C21.1262 30.2072 21.3055 30.3586 21.5207 30.4276L21.5206 30.4275Z" fill="white"/>
<path d="M6.05445 28.2719C6.25499 28.3755 6.48873 28.3941 6.70392 28.3263C6.91774 28.2573 7.09702 28.1058 7.20062 27.904C8.99358 24.4349 9.70414 20.5076 9.24062 16.6309C9.05601 15.089 9.41726 13.5311 10.2606 12.2269C10.4917 11.8351 10.3722 11.3304 9.99101 11.0821C9.60851 10.835 9.09984 10.932 8.83555 11.3025C7.77438 12.9375 7.31752 14.8912 7.54328 16.8275C7.96961 20.3683 7.32281 23.9543 5.68658 27.1231C5.58298 27.3236 5.56306 27.5574 5.6308 27.7739C5.69986 27.989 5.85259 28.1683 6.05447 28.2719L6.05445 28.2719Z" fill="white"/>
</svg>
