<svg width="149" height="40" viewBox="0 0 149 40" fill="none" xmlns="http://www.w3.org/2000/svg">
<path d="M1.19186 23.3563H1.32135H1.31966C1.60723 23.3244 1.86787 23.1765 2.04446 22.9497C2.22272 22.7229 2.30008 22.4339 2.26308 22.1482C1.70643 17.4354 3.04505 12.6942 5.98458 8.96714C8.92579 5.24052 13.2274 2.83274 17.9427 2.27487C22.6598 1.71536 27.4052 3.05111 31.1368 5.98803C34.8785 8.91656 37.2918 13.2192 37.8398 17.9373C37.9104 18.5304 38.4486 18.9554 39.0422 18.8849C39.6375 18.816 40.063 18.2766 39.9923 17.6835C39.1465 10.5697 34.5671 4.44866 27.9787 1.62448C21.3898 -1.19988 13.7957 -0.297651 8.05273 3.99015C2.31151 8.27796 -0.70547 15.3011 0.140472 22.4149C0.206055 22.9458 0.655055 23.3474 1.19151 23.3558L1.19186 23.3563Z" fill="#2E2E2E"/>
<path d="M16.3286 39.7057C16.86 39.9695 17.5041 39.7544 17.7698 39.2235C20.7497 33.2538 21.9151 26.5435 21.1196 19.92C21.049 19.3252 20.5108 18.9018 19.9155 18.9707C19.3219 19.0413 18.8964 19.579 18.9671 20.1737C19.7121 26.3804 18.6207 32.6709 15.8291 38.2643C15.703 38.5213 15.6845 38.8187 15.7786 39.0892C15.8728 39.3597 16.0696 39.5815 16.3285 39.7058L16.3286 39.7057Z" fill="#2E2E2E"/>
<path d="M33.3841 34.3933C33.6666 34.4487 33.9592 34.3899 34.198 34.2269C34.4351 34.0656 34.5982 33.8153 34.6504 33.533C35.6644 28.4958 35.8679 23.3275 35.2575 18.2249C34.9413 15.5972 33.9474 13.0953 32.3734 10.9649C32.0169 10.4894 31.3409 10.3937 30.8667 10.7499C30.3907 11.106 30.2949 11.7798 30.6514 12.2553C32.0085 14.0917 32.8645 16.2507 33.1352 18.5174C33.7188 23.3933 33.522 28.3294 32.5533 33.1416C32.444 33.7162 32.814 34.2707 33.3841 34.3933V34.3933Z" fill="#2E2E2E"/>
<path d="M4.22558 32.1265C4.49128 32.234 4.78726 32.234 5.04961 32.1231C5.31363 32.0122 5.52217 31.8022 5.6298 31.5368C6.9146 28.3915 7.37705 24.9705 6.97681 21.5971C6.59843 18.4047 7.40227 15.1856 9.23864 12.5443C11.075 9.90473 13.8145 8.02798 16.9408 7.26839C20.067 6.50896 23.3648 6.91891 26.2083 8.42266C26.733 8.69989 27.3855 8.49995 27.6629 7.97572C27.9404 7.44981 27.7403 6.7996 27.2156 6.52238C23.9061 4.7683 20.0683 4.28777 16.4276 5.16986C12.7868 6.05196 9.59673 8.23616 7.45928 11.3107C5.3219 14.3854 4.38521 18.1338 4.82915 21.8504C5.18566 24.863 4.77029 27.916 3.62339 30.7252C3.51576 30.9906 3.51912 31.288 3.6318 31.5518C3.74615 31.8139 3.95972 32.0223 4.22542 32.1264L4.22558 32.1265Z" fill="#2E2E2E"/>
<path d="M21.5332 39.9125C22.0764 40.1461 22.7087 39.8957 22.9441 39.353C25.6465 33.059 26.6438 26.1655 25.8332 19.3657C25.665 17.8216 24.8864 16.4086 23.6689 15.4408C22.4531 14.473 20.8992 14.0328 19.3553 14.2159C17.8115 14.3991 16.4056 15.1904 15.4488 16.4153C14.4936 17.6401 14.0665 19.1959 14.2649 20.7367C14.428 22.1094 14.4869 23.4905 14.4415 24.8699C14.423 25.4647 14.8888 25.9621 15.4841 25.9805C16.0777 25.999 16.5755 25.5336 16.594 24.9388C16.6428 23.4519 16.5789 21.9615 16.4056 20.4832C16.2728 19.5087 16.5385 18.5224 17.1422 17.7445C17.7459 16.9683 18.6355 16.4642 19.6142 16.35C20.5913 16.234 21.5751 16.5163 22.3419 17.1312C23.1104 17.7462 23.5981 18.645 23.6973 19.6229C24.4607 26.0429 23.519 32.552 20.968 38.4928C20.8536 38.7549 20.8486 39.054 20.9545 39.3195C21.0605 39.5866 21.269 39.8 21.533 39.9126L21.5332 39.9125Z" fill="#2E2E2E"/>
<path d="M11.6903 38.2725C12.2116 38.5548 12.8625 38.3615 13.1466 37.8424C14.2229 35.8228 15.0604 33.6823 15.6439 31.4697C15.7936 30.8934 15.4505 30.3053 14.8754 30.1541C14.2986 30.0046 13.71 30.3473 13.5586 30.922C13.0188 32.9751 12.2419 34.9594 11.243 36.8327C10.9739 37.3535 11.1724 37.9954 11.6903 38.2726V38.2725Z" fill="#2E2E2E"/>
<path d="M28.4115 19.0852C28.4922 19.6094 28.9446 19.9975 29.476 19.9975H29.6172C30.2041 19.9219 30.6195 19.3876 30.5472 18.8012C30.1705 15.6509 28.3947 12.835 25.7139 11.133C23.0317 9.4327 19.7273 9.02443 16.7103 10.0224C16.4396 10.1149 16.2159 10.3098 16.0881 10.5651C15.962 10.8222 15.9418 11.1179 16.0326 11.3884C16.2227 11.953 16.8348 12.2554 17.3998 12.0655C19.8046 11.2691 22.4398 11.5951 24.5772 12.9543C26.7129 14.3119 28.1255 16.56 28.4215 19.0737L28.4115 19.0852Z" fill="#2E2E2E"/>
<path d="M27.2494 38.4927C27.8111 38.6675 28.408 38.3617 28.593 37.8039C29.9383 33.7782 30.6884 29.5743 30.8145 25.3303C30.833 24.7372 30.3655 24.2416 29.7702 24.2231C29.1766 24.2063 28.6805 24.6734 28.662 25.2665C28.5443 29.3056 27.8329 33.3046 26.5532 37.1387C26.4641 37.4109 26.4893 37.7066 26.6188 37.9603C26.75 38.214 26.977 38.4056 27.2494 38.493L27.2494 38.4927Z" fill="#2E2E2E"/>
<path d="M7.6665 35.7658C7.92043 35.8968 8.21638 35.9204 8.48885 35.8347C8.7596 35.7473 8.9866 35.5558 9.11778 35.3004C11.388 30.9118 12.2877 25.9435 11.7008 21.0392C11.4671 19.0885 11.9245 17.1177 12.9923 15.4679C13.2849 14.9722 13.1336 14.3338 12.6509 14.0196C12.1666 13.707 11.5225 13.8297 11.1879 14.2985C9.84427 16.3667 9.2658 18.8384 9.55165 21.2879C10.0915 25.7672 9.2725 30.3037 7.20071 34.3125C7.06954 34.5662 7.04431 34.8619 7.13008 35.1358C7.21752 35.408 7.41091 35.6348 7.66653 35.7658L7.6665 35.7658Z" fill="#2E2E2E"/>
<path d="M65.012 13.715H60.182V26H58.502V13.715H53.672V12.14H65.012V13.715ZM74.1245 24.782C74.4045 24.782 74.6845 24.747 74.9645 24.677L74.8595 26C74.4675 26.14 74.0475 26.21 73.5995 26.21C73.0535 26.21 72.6195 26.091 72.2975 25.853C71.9895 25.615 71.7935 25.216 71.7095 24.656C71.3875 25.146 70.9115 25.531 70.2815 25.811C69.6655 26.077 69.0145 26.21 68.3285 26.21C67.2925 26.21 66.4385 25.972 65.7665 25.496C65.0945 25.006 64.7585 24.306 64.7585 23.396C64.7585 22.598 65.1085 21.912 65.8085 21.338C66.5085 20.75 67.5235 20.344 68.8535 20.12L71.6465 19.658V19.07C71.6465 18.37 71.4295 17.81 70.9955 17.39C70.5615 16.97 69.9595 16.76 69.1895 16.76C68.4895 16.76 67.8805 16.928 67.3625 17.264C66.8585 17.6 66.4665 18.097 66.1865 18.755L64.9475 17.852C65.2275 17.068 65.7455 16.445 66.5015 15.983C67.2715 15.521 68.1675 15.29 69.1895 15.29C70.4355 15.29 71.4365 15.591 72.1925 16.193C72.9485 16.795 73.3265 17.684 73.3265 18.86V24.026C73.3265 24.278 73.3895 24.467 73.5155 24.593C73.6415 24.719 73.8445 24.782 74.1245 24.782ZM68.4125 24.74C69.2945 24.74 70.0505 24.53 70.6805 24.11C71.3245 23.69 71.6465 23.144 71.6465 22.472V21.023L69.2945 21.464C68.3565 21.632 67.6565 21.877 67.1945 22.199C66.7325 22.507 66.5015 22.906 66.5015 23.396C66.5015 23.83 66.6695 24.166 67.0055 24.404C67.3415 24.628 67.8105 24.74 68.4125 24.74ZM82.5121 15.29C83.7021 15.29 84.6821 15.633 85.4521 16.319C86.2221 17.005 86.6071 17.992 86.6071 19.28V26H84.9271V19.868C84.9271 18.776 84.6891 17.985 84.2131 17.495C83.7511 17.005 83.1281 16.76 82.3441 16.76C81.7841 16.76 81.2591 16.886 80.7691 17.138C80.2791 17.376 79.8731 17.775 79.5511 18.335C79.2431 18.881 79.0891 19.574 79.0891 20.414V26H77.4091V15.5H78.8791L78.9841 17.138C79.3341 16.508 79.8171 16.046 80.4331 15.752C81.0491 15.444 81.7421 15.29 82.5121 15.29ZM96.27 24.656C97.264 24.656 98.041 24.88 98.601 25.328C99.161 25.776 99.441 26.385 99.441 27.155C99.441 27.827 99.21 28.415 98.748 28.919C98.286 29.437 97.656 29.829 96.858 30.095C96.074 30.375 95.206 30.515 94.254 30.515C92.658 30.515 91.454 30.256 90.642 29.738C89.83 29.234 89.424 28.569 89.424 27.743C89.424 27.267 89.585 26.847 89.907 26.483C90.243 26.119 90.698 25.86 91.272 25.706C90.838 25.496 90.488 25.23 90.222 24.908C89.97 24.586 89.844 24.208 89.844 23.774C89.844 23.256 89.984 22.829 90.264 22.493C90.544 22.143 90.929 21.884 91.419 21.716C90.915 21.408 90.53 21.009 90.264 20.519C90.012 20.015 89.886 19.455 89.886 18.839C89.886 18.153 90.068 17.544 90.432 17.012C90.796 16.466 91.307 16.046 91.965 15.752C92.623 15.444 93.365 15.29 94.191 15.29C94.975 15.29 95.689 15.43 96.333 15.71C96.725 14.282 97.712 13.568 99.294 13.568L99.672 15.038C98.3 15.038 97.467 15.423 97.173 16.193C97.593 16.515 97.915 16.9 98.139 17.348C98.377 17.796 98.496 18.293 98.496 18.839C98.496 19.525 98.314 20.141 97.95 20.687C97.586 21.219 97.075 21.639 96.417 21.947C95.759 22.241 95.017 22.388 94.191 22.388C93.575 22.388 93.036 22.325 92.574 22.199C92.154 22.297 91.853 22.451 91.671 22.661C91.489 22.871 91.398 23.158 91.398 23.522C91.398 23.886 91.524 24.166 91.776 24.362C92.028 24.558 92.364 24.656 92.784 24.656H96.27ZM94.191 16.655C93.463 16.655 92.854 16.858 92.364 17.264C91.874 17.67 91.629 18.195 91.629 18.839C91.629 19.483 91.874 20.008 92.364 20.414C92.854 20.82 93.463 21.023 94.191 21.023C94.919 21.023 95.528 20.82 96.018 20.414C96.508 20.008 96.753 19.483 96.753 18.839C96.753 18.195 96.508 17.67 96.018 17.264C95.528 16.858 94.919 16.655 94.191 16.655ZM94.443 29.108C95.507 29.108 96.347 28.933 96.963 28.583C97.579 28.247 97.887 27.834 97.887 27.344C97.887 26.938 97.726 26.63 97.404 26.42C97.096 26.21 96.564 26.105 95.808 26.105H92.994C92.35 26.105 91.853 26.217 91.503 26.441C91.153 26.679 90.978 27.001 90.978 27.407C90.978 27.939 91.272 28.352 91.86 28.646C92.448 28.954 93.309 29.108 94.443 29.108ZM102.776 13.484C102.398 13.484 102.09 13.372 101.852 13.148C101.628 12.91 101.516 12.602 101.516 12.224C101.516 11.846 101.628 11.545 101.852 11.321C102.09 11.083 102.398 10.964 102.776 10.964C103.154 10.964 103.455 11.083 103.679 11.321C103.917 11.545 104.036 11.846 104.036 12.224C104.036 12.602 103.917 12.91 103.679 13.148C103.455 13.372 103.154 13.484 102.776 13.484ZM103.616 26H101.936V15.5H103.616V26ZM112.681 15.29C114.151 15.29 115.313 15.78 116.167 16.76C117.035 17.726 117.469 19.056 117.469 20.75C117.469 22.444 117.035 23.781 116.167 24.761C115.313 25.727 114.151 26.21 112.681 26.21C111.869 26.21 111.141 26.028 110.497 25.664C109.867 25.286 109.398 24.789 109.09 24.173L108.985 26H107.515V10.67H109.195V17.138C109.531 16.578 110 16.13 110.602 15.794C111.218 15.458 111.911 15.29 112.681 15.29ZM112.492 24.74C113.514 24.74 114.319 24.383 114.907 23.669C115.495 22.941 115.789 21.968 115.789 20.75C115.789 19.532 115.495 18.566 114.907 17.852C114.319 17.124 113.514 16.76 112.492 16.76C111.484 16.76 110.679 17.11 110.077 17.81C109.489 18.51 109.195 19.448 109.195 20.624V20.876C109.195 22.052 109.489 22.99 110.077 23.69C110.679 24.39 111.484 24.74 112.492 24.74ZM122.338 23.186C122.338 23.718 122.415 24.089 122.569 24.299C122.737 24.495 123.038 24.593 123.472 24.593C123.766 24.593 124.018 24.572 124.228 24.53C124.452 24.488 124.711 24.411 125.005 24.299L124.732 25.916C124.27 26.112 123.752 26.21 123.178 26.21C122.324 26.21 121.687 25.979 121.267 25.517C120.861 25.055 120.658 24.348 120.658 23.396V10.67H122.338V23.186ZM136.17 20.204C136.17 20.596 136.142 20.988 136.086 21.38H128.169C128.267 22.444 128.617 23.27 129.219 23.858C129.835 24.446 130.626 24.74 131.592 24.74C132.362 24.74 132.999 24.607 133.503 24.341C134.021 24.075 134.371 23.69 134.553 23.186L135.96 23.921C135.54 24.663 134.98 25.23 134.28 25.622C133.58 26.014 132.684 26.21 131.592 26.21C130.01 26.21 128.764 25.727 127.854 24.761C126.958 23.795 126.51 22.458 126.51 20.75C126.51 19.042 126.937 17.705 127.791 16.739C128.659 15.773 129.884 15.29 131.466 15.29C132.446 15.29 133.293 15.507 134.007 15.941C134.721 16.375 135.26 16.963 135.624 17.705C135.988 18.447 136.17 19.28 136.17 20.204ZM131.466 16.76C130.542 16.76 129.793 17.033 129.219 17.579C128.659 18.125 128.316 18.895 128.19 19.889H134.553C134.441 18.909 134.119 18.146 133.587 17.6C133.055 17.04 132.348 16.76 131.466 16.76ZM142.933 26.21C141.925 26.21 141.015 26.014 140.203 25.622C139.391 25.216 138.796 24.621 138.418 23.837L139.783 22.892C140.021 23.508 140.434 23.97 141.022 24.278C141.61 24.586 142.303 24.74 143.101 24.74C143.927 24.74 144.557 24.593 144.991 24.299C145.425 24.005 145.642 23.634 145.642 23.186C145.642 22.78 145.439 22.458 145.033 22.22C144.627 21.968 143.913 21.751 142.891 21.569C141.883 21.387 141.085 21.17 140.497 20.918C139.909 20.652 139.482 20.323 139.216 19.931C138.95 19.525 138.817 19.028 138.817 18.44C138.817 17.866 138.985 17.341 139.321 16.865C139.657 16.389 140.14 16.011 140.77 15.731C141.4 15.437 142.128 15.29 142.954 15.29C144.074 15.29 144.97 15.5 145.642 15.92C146.328 16.326 146.818 16.956 147.112 17.81L145.684 18.65C145.46 17.978 145.117 17.495 144.655 17.201C144.207 16.907 143.64 16.76 142.954 16.76C142.268 16.76 141.687 16.914 141.211 17.222C140.735 17.53 140.497 17.887 140.497 18.293C140.497 18.755 140.7 19.112 141.106 19.364C141.526 19.616 142.268 19.833 143.332 20.015C144.788 20.253 145.817 20.61 146.419 21.086C147.021 21.562 147.322 22.234 147.322 23.102C147.322 23.704 147.14 24.243 146.776 24.719C146.426 25.181 145.915 25.545 145.243 25.811C144.585 26.077 143.815 26.21 142.933 26.21Z" fill="#2E2E2E"/>
</svg>
